<svg width="456" height="113" viewBox="0 0 456 113" fill="none" xmlns="http://www.w3.org/2000/svg">
<path d="M112.097 43.8523L87.2209 30.0572C86.7727 29.8084 86.2729 29.6888 85.7697 29.7094C85.2661 29.7301 84.7764 29.8908 84.3469 30.176C83.917 30.4613 83.5624 30.8609 83.3162 31.3377C83.07 31.814 82.9409 32.3512 82.9409 32.8973V60.5079C82.9409 61.054 83.07 61.5912 83.3162 62.0675C83.5624 62.5443 83.917 62.9439 84.3469 63.2291C84.7764 63.5144 85.2661 63.6751 85.7697 63.6957C86.2729 63.7164 86.7727 63.5967 87.2209 63.348L112.097 49.5529C112.584 49.2876 112.994 48.8806 113.28 48.3771C113.567 47.874 113.718 47.2942 113.718 46.7026C113.718 46.111 113.567 45.5312 113.28 45.0281C112.994 44.5246 112.584 44.1176 112.097 43.8523ZM103.754 48.3154L89.6153 56.1583C89.3602 56.3008 89.0751 56.3693 88.7882 56.3576C88.5012 56.3454 88.2221 56.2537 87.9774 56.0902C87.7331 55.9271 87.5315 55.6982 87.3923 55.426C87.2531 55.1533 87.1813 54.8466 87.1835 54.5354V38.8455C87.1824 38.5347 87.255 38.2283 87.3945 37.9569C87.5337 37.6851 87.7354 37.4566 87.9793 37.2939C88.2236 37.1308 88.5023 37.0387 88.7889 37.0261C89.0751 37.0136 89.3598 37.0813 89.6153 37.2225L103.754 45.0695C104.03 45.2208 104.262 45.4521 104.424 45.7382C104.586 46.0238 104.672 46.3529 104.672 46.6884C104.672 47.0239 104.586 47.353 104.424 47.6386C104.262 47.9247 104.03 48.156 103.754 48.3073V48.3154Z" fill="white"/>
<path d="M34.1547 106.673C33.7095 103.317 33.2942 99.9537 32.864 96.5983L30.6192 79.3016C30.3274 77.0538 30.0367 74.8089 29.7475 72.5664C29.5642 71.1341 29.3734 69.6978 29.1826 68.2412L23.6268 68.3792H23.4696C23.3492 68.371 23.2287 68.3913 23.1165 68.4384C23.0039 68.4855 22.9021 68.5581 22.8179 68.6518C22.7337 68.7451 22.669 68.8575 22.6286 68.9805C22.5882 69.1038 22.5725 69.2349 22.583 69.3651C22.4842 72.8447 22.0263 76.3016 21.2174 79.6709C20.7497 81.5859 20.196 83.4686 19.0624 85.0834C18.0224 86.5603 16.9972 88.0494 16.0283 89.579C14.7787 91.5549 13.5815 93.6039 13.1737 95.9856C12.3543 100.79 13.7311 105.05 17.0347 108.673C18.0186 109.752 19.2794 110.568 20.4018 111.513L22.9346 112.617C25.2142 113.146 27.5731 113.127 29.8448 112.56C32.98 111.882 34.6261 110.243 34.1547 106.673ZM28.9543 105.821C26.4065 109.497 21.4718 109.716 18.4152 106.226C15.4222 102.826 14.8759 98.9597 16.0058 95.0118C17.3078 91.9363 19.1709 89.9442 22.4034 89.8346C25.0447 89.7453 27.0164 91.1654 28.5952 93.2834C31.259 96.8661 31.4011 102.319 28.9543 105.821Z" fill="white"/>
<path d="M77.2465 89.6602C76.0142 91.682 74.3643 93.3642 72.4278 94.5737C71.066 95.4866 69.5844 96.2291 67.8784 95.6165C67.0475 95.328 66.2943 94.822 65.686 94.1436C62.4386 90.2607 59.266 86.3088 56.0784 82.3772C51.5216 76.7618 46.9684 71.1451 42.4191 65.5268L40.6943 63.3683C41.7194 62.3621 42.7221 61.3761 43.7322 60.3902C45.7189 58.4467 45.2699 58.7997 47.1779 60.3902C50.4403 63.0883 53.8037 65.6648 57.7246 67.1579C59.2959 67.7584 61.0057 67.941 62.6593 68.2615C65.2595 68.7687 67.8485 69.2759 70.3252 70.3673C73.176 71.6247 75.5128 73.9561 76.9061 76.9322C78.4673 79.9521 78.914 83.5015 78.1557 86.8647C78.1557 86.9296 78.1856 87.0107 78.2006 87.0838L77.2465 89.6602ZM59.4755 75.7352C59.3008 76.6887 59.187 77.654 59.135 78.6241C59.1612 83.2779 62.8277 87.9561 67.2424 89.0962C71.8666 90.2729 75.6827 87.4408 75.7987 82.7586C75.9184 77.7558 71.9115 72.7044 67.1227 71.8036C63.6582 71.191 60.7363 72.7206 59.4755 75.7352Z" fill="white"/>
<path d="M43.4067 58.1667L39.5158 61.9888C38.5056 60.5646 37.2411 59.8749 35.4902 60.1629C36.9156 57.9354 35.7184 55.6998 35.5276 53.5088C35.4303 52.4052 35.1759 51.3097 34.9514 49.9626L43.4067 58.1667Z" fill="white"/>
<path d="M86.4013 8.5306e-06H63.8938C56.7016 -0.00486033 49.6389 2.07454 43.4366 6.02401C37.2343 9.97306 32.1181 15.6481 28.6174 22.4617C27.9814 18.6425 27.3428 14.8257 26.7019 11.0118C26.5455 10.0741 26.1036 9.22042 25.4471 8.58706C24.7905 7.95371 23.9573 7.57758 23.0803 7.51835C23.2199 25.8443 23.3598 44.1525 23.4993 62.4432C23.4993 63.8146 23.4993 65.19 23.5293 66.5614L29.0626 66.4154C28.5388 64.48 29.2834 63.21 30.5591 62.143L30.6676 62.0537C31.7152 61.1773 32.7066 60.2157 33.7317 59.315C34.022 59.0829 34.2424 58.7631 34.3655 58.3955C34.4886 58.0283 34.5088 57.6295 34.4239 57.2497C34.2069 56.0325 34.0086 54.7788 33.8028 53.5453L31.1652 37.7743C33.7841 20.8144 47.4659 7.66847 63.8864 7.66847H86.3938C87.3441 7.65995 88.2529 7.24691 88.9248 6.5182C89.5967 5.7895 89.9776 4.80395 89.9855 3.77337C89.9929 1.88669 88.3505 8.5306e-06 86.4013 8.5306e-06ZM28.1161 52.0076C27.7461 52.0076 27.3843 51.8887 27.0767 51.6656C26.7692 51.4428 26.5294 51.1259 26.388 50.7551C26.2462 50.3846 26.2091 49.9765 26.2814 49.5833C26.3536 49.1897 26.5316 48.8282 26.7932 48.5442C27.0551 48.2606 27.3884 48.0675 27.7513 47.9892C28.1138 47.9109 28.4902 47.951 28.8318 48.1048C29.1737 48.2582 29.4659 48.5182 29.6713 48.8518C29.8771 49.1853 29.9867 49.5776 29.9867 49.9789C29.9867 50.5169 29.7895 51.033 29.439 51.4136C29.0881 51.7938 28.6122 52.0076 28.1161 52.0076Z" fill="white"/>
<path d="M0.909661 16.9233L7.64395 23.4638C12.1035 27.7919 16.5557 32.1195 21.0003 36.4475C21.2828 36.7149 21.4638 37.0865 21.5091 37.4902C21.5839 41.3488 21.6101 45.1993 21.6513 49.066C21.6513 49.1633 21.6513 49.2607 21.6326 49.565C20.8843 48.5872 20.2633 47.7514 19.6347 46.9115C13.3991 38.5938 7.16394 30.2734 0.928368 21.9504C-0.295027 20.3113 -0.317476 18.3313 0.909661 16.9233Z" fill="white"/>
<path d="M166.319 44.1119C166.319 68.4035 148.267 88.2157 125.756 88.2157H99.1142C98.1711 88.1869 97.2735 87.7677 96.6065 87.0443C95.9394 86.3209 95.5529 85.3475 95.5264 84.3246C95.535 83.2957 95.9158 82.3114 96.587 81.5839C97.2578 80.856 98.1655 80.4429 99.1142 80.4336L125.756 80.5513C144.245 80.4336 159.251 64.0418 159.251 44.1119C159.251 24.182 144.245 7.78202 125.763 7.78202H99.1142C98.1655 7.77269 97.2578 7.35965 96.587 6.63176C95.9158 5.90427 95.535 4.91995 95.5264 3.89099C95.5327 3.38747 95.6307 2.89043 95.8144 2.42789C95.9985 1.96535 96.2645 1.54704 96.5979 1.19648C96.9312 0.845926 97.3252 0.570023 97.7569 0.385006C98.1887 0.199989 98.65 0.109093 99.1142 0.117614H125.763C136.521 0.119642 146.837 4.75603 154.442 13.0063C162.048 21.2566 166.32 32.4457 166.319 44.1119Z" fill="white"/>
<ellipse cx="95.7545" cy="83.1373" rx="7.52358" ry="7.81633" fill="white"/>
<path d="M290.546 63.8795H281.601C280.906 63.9087 280.213 63.7817 279.565 63.5062C278.917 63.2311 278.329 62.8136 277.837 62.2805C277.345 61.7469 276.961 61.1091 276.707 60.4068C276.453 59.7044 276.336 58.953 276.363 58.1991V20.2869C276.39 18.7893 276.95 17.3615 277.927 16.3026C278.903 15.2436 280.22 14.6358 281.601 14.6066H290.546C296.948 14.6066 302.331 16.9749 306.693 21.7111C311.056 26.4472 313.232 32.2899 313.222 39.239C313.222 46.1933 311.041 52.0388 306.678 56.775C302.316 61.5112 296.939 63.8795 290.546 63.8795ZM286.883 52.4214C288.485 52.4673 289.705 52.4892 290.546 52.4863C292.156 52.5139 293.756 52.1897 295.248 51.5337C296.741 50.8772 298.096 49.9022 299.235 48.6663C300.373 47.4304 301.27 45.9592 301.874 44.3395C302.477 42.7198 302.774 40.9853 302.746 39.239C302.746 35.4522 301.585 32.298 299.263 29.7771C296.941 27.2563 294.04 25.9944 290.561 25.9916H286.883V52.4214Z" fill="white"/>
<path d="M345.648 101.049C341.006 101.049 337.095 99.3247 333.915 95.8759C330.735 92.4271 329.144 88.1843 329.141 83.1478C329.141 78.1138 330.723 73.8605 333.885 70.3874C337.048 66.9143 340.949 65.1789 345.588 65.1818H350.826C351.387 65.1818 351.667 64.8531 351.667 64.2039V45.8645C351.667 44.1381 351.035 42.4823 349.909 41.261C348.784 40.0402 347.256 39.3545 345.664 39.3545C344.073 39.3545 342.545 40.0402 341.42 41.261C340.294 42.4823 339.662 44.1381 339.662 45.8645C339.647 46.7312 339.794 47.5918 340.093 48.3955C340.391 49.1993 340.837 49.9296 341.401 50.5427C341.949 51.1667 342.612 51.6605 343.345 51.9924C344.079 52.3239 344.868 52.4866 345.663 52.47C346.36 52.446 347.054 52.5746 347.704 52.8485C348.354 53.1228 348.946 53.5362 349.445 54.0645C349.938 54.5928 350.326 55.2257 350.584 55.9236C350.841 56.6219 350.963 57.3705 350.942 58.1219C350.963 58.8806 350.84 59.6357 350.583 60.3413C350.325 61.0469 349.936 61.6875 349.442 62.2243C348.947 62.7607 348.356 63.1819 347.705 63.4618C347.055 63.7414 346.358 63.874 345.659 63.8509C340.98 63.8509 337.059 62.1225 333.896 58.6656C330.734 55.2087 329.152 50.9375 329.152 45.8524C329.152 40.7644 330.734 36.5029 333.896 33.0675C337.059 29.6321 340.98 27.9147 345.659 27.9147C350.343 27.9147 354.265 29.6321 357.425 33.0675C360.585 36.5029 362.165 40.7615 362.165 45.8442V64.1593C362.19 65.7891 361.914 67.408 361.353 68.9206C360.792 70.4332 359.959 71.8091 358.901 72.9671C357.843 74.1254 356.582 75.0424 355.193 75.6648C353.804 76.2872 352.314 76.6021 350.811 76.5911H345.648C344.854 76.5737 344.065 76.7356 343.331 77.0658C342.598 77.3961 341.936 77.8879 341.386 78.5103C340.822 79.1185 340.377 79.8443 340.078 80.644C339.779 81.4442 339.632 82.3011 339.647 83.1641C339.656 84.4487 340.014 85.7016 340.674 86.7678C341.335 87.8341 342.269 88.6667 343.362 89.1625C344.455 89.6579 345.658 89.7947 346.822 89.5557C347.986 89.3167 349.059 88.7126 349.909 87.8179C350.473 87.2361 350.919 86.5338 351.219 85.7547C351.52 84.9757 351.667 84.1379 351.652 83.2939C351.685 81.3861 352.182 79.5218 353.093 77.8895C354.174 75.8608 355.887 75.7959 357.369 75.7959C358.851 75.7959 359.614 76.2016 360.774 77.8895C361.877 79.5124 362.154 81.3829 362.154 83.1641C362.154 88.2005 360.564 92.4433 357.384 95.8921C354.204 99.3409 350.292 101.06 345.648 101.049Z" fill="white"/>
<path d="M370.048 25.8739C369.236 25.8902 368.43 25.7254 367.68 25.3895C366.929 25.0539 366.251 24.5545 365.686 23.9223C364.537 22.654 363.894 20.947 363.894 19.1691C363.894 17.3911 364.537 15.6842 365.686 14.4159C366.406 13.6377 367.292 13.0639 368.265 12.7458C369.239 12.4273 370.269 12.3742 371.266 12.5909C372.263 12.8079 373.195 13.2875 373.98 13.9882C374.765 14.6889 375.379 15.5885 375.767 16.6073C376.155 17.6265 376.305 18.7337 376.205 19.8309C376.104 20.928 375.755 21.9813 375.19 22.8974C374.624 23.8136 373.86 24.5646 372.962 25.0839C372.066 25.6029 371.064 25.8743 370.048 25.8739ZM373.86 62.1591C373.362 62.6846 372.771 63.096 372.123 63.3691C371.476 63.6425 370.784 63.7715 370.089 63.7496C369.394 63.7801 368.7 63.6539 368.052 63.3792C367.404 63.1041 366.815 62.687 366.323 62.1535C365.831 61.6195 365.447 60.9813 365.193 60.2785C364.94 59.5754 364.823 58.8232 364.851 58.0693V33.6195C364.823 32.8656 364.94 32.1134 365.193 31.4102C365.447 30.7075 365.831 30.0693 366.323 29.5353C366.815 29.0018 367.404 28.5847 368.052 28.3096C368.7 28.0349 369.394 27.9087 370.089 27.9392C370.788 27.9136 371.485 28.0406 372.138 28.3132C372.791 28.5859 373.387 28.9981 373.89 29.5256C374.383 30.0636 374.769 30.7067 375.022 31.4139C375.275 32.1211 375.39 32.8778 375.361 33.6357V58.0896C375.382 58.8422 375.259 59.5912 375.001 60.2899C374.743 60.989 374.355 61.6223 373.86 62.151V62.1591Z" fill="white"/>
<path d="M321.461 24.783C320.649 24.7992 319.843 24.6345 319.093 24.2985C318.342 23.963 317.663 23.4635 317.098 22.8314C315.95 21.563 315.306 19.8561 315.306 18.0781C315.306 16.3002 315.95 14.5933 317.098 13.3249C317.819 12.5467 318.705 11.973 319.678 11.6549C320.652 11.3364 321.682 11.2833 322.679 11.4999C323.676 11.717 324.608 12.1966 325.393 12.8973C326.178 13.598 326.792 14.4975 327.18 15.5163C327.568 16.5355 327.718 17.6428 327.617 18.7399C327.517 19.837 327.168 20.8903 326.603 21.8065C326.037 22.7226 325.272 23.4737 324.375 23.993C323.478 24.5119 322.477 24.7834 321.461 24.783ZM325.273 61.0682C324.775 61.5936 324.184 62.005 323.536 62.2781C322.888 62.5516 322.197 62.6806 321.502 62.6587C320.806 62.6891 320.113 62.5629 319.465 62.2883C318.817 62.0132 318.228 61.5961 317.736 61.0625C317.244 60.5286 316.859 59.8903 316.606 59.1876C316.352 58.4845 316.236 57.7322 316.264 56.9783V32.5286C316.236 31.7747 316.352 31.0224 316.606 30.3193C316.859 29.6166 317.244 28.9783 317.736 28.4444C318.228 27.9108 318.817 27.4937 319.465 27.2186C320.113 26.9439 320.806 26.8178 321.502 26.8482C322.201 26.8226 322.898 26.9496 323.551 27.2223C324.204 27.495 324.8 27.9072 325.303 28.4346C325.796 28.9726 326.182 29.6157 326.434 30.3229C326.687 31.0301 326.803 31.7869 326.773 32.5448V56.9987C326.795 57.7513 326.672 58.5003 326.414 59.199C326.156 59.898 325.767 60.5314 325.273 61.0601V61.0682Z" fill="white"/>
<path d="M392.226 63.7495C388.185 63.7495 384.818 62.2848 382.125 59.3554C379.431 56.426 378.08 52.7743 378.073 48.4005V20.3112C378.052 19.5553 378.17 18.8027 378.423 18.0979C378.676 17.3931 379.057 16.7508 379.543 16.2092C380.03 15.6736 380.614 15.2533 381.257 14.9737C381.901 14.6946 382.591 14.5627 383.284 14.5862C383.984 14.5639 384.68 14.6966 385.33 14.9765C385.98 15.2565 386.57 15.6777 387.065 16.2144C387.559 16.7512 387.947 17.3915 388.205 18.0967C388.463 18.8022 388.585 19.5569 388.563 20.3152V28.146H401.112C401.806 28.1147 402.498 28.2393 403.145 28.5124C403.793 28.7854 404.381 29.2009 404.873 29.7328C405.365 30.2644 405.75 30.901 406.004 31.6017C406.258 32.3028 406.376 33.0534 406.349 33.806C406.372 34.566 406.254 35.3231 406.002 36.0328C405.75 36.742 405.37 37.3895 404.883 37.9365C404.388 38.4708 403.796 38.8883 403.145 39.163C402.494 39.4373 401.798 39.5627 401.1 39.531H388.563V48.3842C388.554 48.9088 388.642 49.4298 388.822 49.9167C389.003 50.4032 389.272 50.8455 389.615 51.2163C389.957 51.5871 390.364 51.8797 390.813 52.0753C391.262 52.2712 391.742 52.367 392.226 52.3564C392.706 52.3714 393.183 52.2777 393.628 52.0813C394.072 51.8849 394.474 51.5904 394.808 51.2163C395.145 50.8418 395.41 50.3971 395.585 49.909C395.76 49.4209 395.843 48.8995 395.829 48.3761V47.7837C395.812 47.0327 395.94 46.2858 396.203 45.5911C396.466 44.8961 396.86 44.268 397.359 43.7466C397.85 43.218 398.435 42.8017 399.078 42.5229C399.72 42.2442 400.408 42.1083 401.1 42.1237C401.792 42.107 402.48 42.2426 403.123 42.5221C403.765 42.8017 404.349 43.2196 404.838 43.7503C405.328 44.2814 405.713 44.9139 405.971 45.6106C406.228 46.3073 406.353 47.0534 406.338 47.804V48.3883C406.338 52.7163 404.988 56.3679 402.286 59.3432C399.585 62.3185 396.232 63.7873 392.226 63.7495Z" fill="white"/>
<path d="M440.608 62.151C440.109 62.6793 439.517 63.0931 438.867 63.3678C438.217 63.6425 437.523 63.7723 436.826 63.7496C436.131 63.78 435.437 63.6539 434.789 63.3792C434.141 63.1041 433.552 62.687 433.06 62.1535C432.568 61.6195 432.184 60.9813 431.93 60.2785C431.677 59.5754 431.56 58.8231 431.588 58.0693V45.8647C431.604 45.0017 431.454 44.1447 431.15 43.3475C430.845 42.5502 430.392 41.8296 429.819 41.2311C429.259 40.6172 428.59 40.1328 427.852 39.807C427.115 39.4816 426.324 39.3213 425.527 39.3363C424.737 39.3185 423.951 39.4763 423.218 39.7993C422.485 40.1222 421.821 40.6039 421.266 41.2149C420.7 41.8109 420.253 42.5271 419.953 43.3187C419.653 44.1103 419.507 44.9603 419.523 45.816C419.509 46.6758 419.656 47.5294 419.955 48.3251C420.255 49.1211 420.701 49.8425 421.266 50.4455C421.816 51.0654 422.479 51.5552 423.213 51.8842C423.946 52.2129 424.734 52.3739 425.527 52.3565C426.224 52.333 426.917 52.462 427.567 52.7359C428.216 53.0101 428.807 53.4232 429.306 53.951C429.8 54.4789 430.188 55.1115 430.446 55.8097C430.703 56.508 430.825 57.2566 430.803 58.0084C430.823 58.7668 430.7 59.5214 430.442 60.2266C430.183 60.9314 429.795 61.5716 429.3 62.108C428.806 62.6444 428.215 63.0655 427.565 63.3459C426.915 63.6263 426.219 63.7594 425.52 63.7375C420.836 63.7375 416.914 62.0159 413.754 58.5724C410.593 55.1289 409.012 50.8727 409.01 45.8038C409.01 40.7349 410.591 36.4893 413.754 33.0677C416.916 29.6461 420.839 27.9339 425.52 27.931C430.199 27.931 434.13 29.6485 437.312 33.0839C440.495 36.5193 442.086 40.7808 442.086 45.8687V58.0612C442.114 58.8167 441.997 59.5701 441.742 60.2741C441.488 60.978 441.102 61.617 440.608 62.151Z" fill="white"/>
<path d="M194.25 35.9768C193.748 36.4759 193.318 36.7233 192.959 36.7233C192.651 36.7075 192.361 36.5619 192.151 36.3176C191.827 35.9808 191.535 35.6096 191.279 35.2099C190.979 34.762 190.597 34.3863 190.157 34.1063C189.735 33.8142 189.246 33.6551 188.746 33.6478C187.586 33.6478 186.026 35.3085 184.066 38.6303C182.105 41.9521 180.183 46.1284 178.301 51.1595C178.342 52.1576 178.413 53.4195 178.51 54.9369C178.607 56.4544 178.682 57.5823 178.723 58.3208L178.903 60.9256C178.91 61.4835 178.781 62.0337 178.529 62.5202C178.388 62.7551 178.191 62.9434 177.957 63.0635C177.724 63.184 177.465 63.2319 177.208 63.2018C176.527 63.2018 176.087 62.2147 175.887 60.24C175.688 58.2652 175.563 55.3914 175.513 51.618C175.472 50.6605 175.442 49.2972 175.423 47.516C175.405 45.7348 175.352 43.6087 175.274 41.1337C175.154 37.4062 175.094 34.7381 175.094 33.1285C175.094 32.1304 175.654 31.6313 176.774 31.6313C177.455 31.6313 177.863 31.9478 178.005 32.5767C178.183 33.77 178.253 34.9795 178.214 36.1878V46.5666C179.266 43.556 180.573 40.6578 182.117 37.9081C183.239 35.851 184.625 33.9769 186.232 32.3414C187.571 31.0621 188.762 30.4222 189.805 30.4222C190.681 30.4222 191.545 30.6458 192.327 31.0755C193.074 31.463 193.731 32.0306 194.246 32.7349C194.676 33.2701 194.93 33.9453 194.968 34.6541C194.998 35.0314 194.74 35.4777 194.25 35.9768Z" fill="white"/>
<path d="M222.361 46.4245C222.361 47.2088 221.83 48.9238 220.768 51.5693C219.628 54.3388 217.997 56.8382 215.968 58.9253C214.93 60.0309 213.698 60.9 212.346 61.4815C210.993 62.0625 209.547 62.344 208.092 62.3091C205.719 62.3862 203.413 61.451 201.668 59.7043C199.947 57.9678 199.087 55.2992 199.087 51.6991C199.15 48.2442 199.876 44.8413 201.22 41.7082C202.564 38.5751 204.495 35.7799 206.891 33.5017C209.188 31.3919 211.584 30.337 214.078 30.337C215.395 30.2907 216.696 30.6644 217.819 31.4122C218.306 31.7327 218.704 32.1883 218.973 32.7316C219.242 33.2753 219.372 33.8872 219.35 34.5039C219.35 36.0266 218.56 37.5023 216.981 38.9305C215.126 40.5324 213.049 41.8072 210.827 42.7079C208.311 43.7912 205.694 44.576 203.023 45.049C202.554 46.9609 202.313 48.9299 202.304 50.9079C202.304 53.4263 202.854 55.3791 203.954 56.7668C205.054 58.1585 206.626 58.8482 208.668 58.8482C211.746 58.8482 214.247 57.6553 216.17 55.2696C218.115 52.8396 219.732 50.1228 220.973 47.1995C221.052 47.025 221.19 46.6882 221.392 46.1892C221.594 45.6901 221.767 45.4385 221.931 45.4385C222.219 45.4466 222.361 45.7753 222.361 46.4245ZM215.668 33.5829C214.955 33.18 214.16 32.9791 213.356 32.9986C211.774 33.0201 210.239 33.5885 208.975 34.6216C207.595 35.6818 206.404 37.0057 205.462 38.5288C204.653 39.7558 204.035 41.1182 203.633 42.5619C205.636 42.305 207.596 41.7411 209.454 40.8862C211.268 40.1116 212.991 39.1066 214.587 37.8918C215.966 36.8097 216.656 35.9199 216.656 35.222C216.654 34.8747 216.561 34.5351 216.385 34.2442C216.21 33.9533 215.961 33.7237 215.668 33.5829Z" fill="white"/>
<path d="M262.547 48.932C261.489 52.9435 260.258 56.1976 258.854 58.6941C257.45 61.1906 256.328 62.439 255.487 62.439C254.287 62.439 253.146 61.18 252.064 58.6616C250.864 55.7411 249.968 52.6843 249.392 49.5487C248.741 46.3555 248.309 43.1141 248.102 39.8516C247.024 42.1075 245.864 44.6567 244.622 47.4997C243.38 50.3427 242.4 52.7622 241.682 54.7584C240.602 57.8367 239.642 60.8311 238.801 63.7415C238.725 63.9415 238.664 64.1476 238.618 64.3582C238.573 64.617 238.459 64.856 238.288 65.0439C238.107 65.1875 237.884 65.2569 237.66 65.2386C237.179 65.2845 236.7 65.1405 236.309 64.8329C235.951 64.4596 235.674 64.0052 235.497 63.5021L235.03 60.812C234.309 56.5599 233.548 52.524 232.747 48.7048C232.045 45.3887 231.143 42.1261 230.046 38.9387C229.126 36.3772 228.426 35.0963 227.947 35.0963C227.675 35.1519 227.424 35.2931 227.225 35.502C226.943 35.7552 226.641 35.9832 226.324 36.1837C226.222 36.2644 226.103 36.3184 225.979 36.3407C225.854 36.3634 225.726 36.3541 225.605 36.3135C225.126 36.0538 224.883 35.7495 224.883 35.4047C224.883 35.0598 225.126 34.512 225.605 33.7817C226.08 33.0506 226.634 32.3847 227.255 31.7976C227.876 31.2134 228.426 30.9172 228.905 30.9172C229.237 30.9091 229.562 31.0125 229.837 31.2134C230.145 31.4609 230.419 31.7559 230.649 32.0898C231.165 32.8282 231.884 34.5538 232.807 37.267C233.86 40.487 234.702 43.7828 235.329 47.1305L237.791 58.5196C239.631 52.9638 241.322 48.353 242.864 44.688C244.405 41.0229 246.151 37.2143 248.102 33.2624C248.865 31.7908 249.665 31.0539 250.504 31.0511C250.764 31.0426 251.022 31.0965 251.261 31.2085C251.499 31.3209 251.712 31.4889 251.884 31.7003C252.168 31.9717 252.359 32.3393 252.427 32.743C252.4 32.9731 252.291 33.1828 252.124 33.3273C251.94 33.5233 251.78 33.7428 251.645 33.9805C251.316 34.4739 251.063 35.022 250.896 35.6035C250.68 36.5172 250.588 37.4605 250.623 38.4031C250.709 40.7949 250.959 43.1766 251.372 45.5278C251.805 48.4865 252.487 51.3956 253.411 54.2188C254.271 56.783 255.201 58.064 256.202 58.0611C256.805 58.0611 257.546 56.979 258.424 54.8152C259.426 52.2197 260.201 49.5272 260.736 46.7735C261.378 43.7523 261.711 40.6634 261.727 37.5632C261.727 36.9546 261.447 36.2608 260.886 35.4818C260.444 34.8285 260.223 34.3538 260.223 34.0495C260.302 33.615 260.502 33.2173 260.796 32.9094C260.927 32.6972 261.1 32.5195 261.302 32.3896C261.505 32.2598 261.732 32.1807 261.967 32.1588C262.487 32.1588 262.977 32.6172 263.437 33.5261C263.876 34.3599 264.113 35.3008 264.126 36.2608C264.148 40.5437 263.616 44.8089 262.547 48.932Z" fill="white"/>
</svg>
