<svg width="314" height="129" viewBox="0 0 314 129" fill="none" xmlns="http://www.w3.org/2000/svg">
<g filter="url(#filter0_d)">
<path d="M94.0124 5.15219C94.0019 6.55914 93.4867 7.90519 92.578 8.90008C91.6693 9.89497 90.4399 10.459 89.1548 10.4706H58.7139C34.0059 10.4706 13.8519 32.6915 13.8519 59.5827L13.7052 115.298C13.6632 116.678 13.134 117.986 12.2289 118.947C11.3238 119.908 10.1134 120.447 8.85262 120.451C8.22151 120.476 7.59224 120.361 7.00267 120.114C6.4131 119.866 5.87545 119.49 5.42208 119.008C4.96872 118.527 4.609 117.95 4.36462 117.313C4.12024 116.675 3.99625 115.99 4.00009 115.298L4.14683 59.5827C4.14683 26.7305 28.5613 0 58.7139 0H89.1548C91.7911 0 94.0124 2.57609 94.0124 5.15219Z" fill="black"/>
<path d="M309.745 60.071C309.745 93.239 285.331 120.291 254.885 120.291H218.853C217.577 120.252 216.363 119.679 215.461 118.691C214.558 117.703 214.036 116.375 214 114.978C214.012 113.573 214.527 112.229 215.434 111.236C216.342 110.242 217.569 109.678 218.853 109.665L254.885 109.826C279.891 109.665 300.187 87.2835 300.187 60.071C300.187 32.8585 279.891 10.4658 254.895 10.4658H218.853C217.569 10.4528 216.342 9.88891 215.434 8.89536C214.527 7.90181 214.012 6.558 214 5.15297C214.009 4.46548 214.141 3.78659 214.39 3.15525C214.638 2.52391 214.998 1.95253 215.449 1.47388C215.9 0.995222 216.433 0.618701 217.017 0.365912C217.601 0.113123 218.225 -0.0109695 218.853 0.000760329H254.895C269.444 0.00369868 283.396 6.334 293.682 17.5992C303.969 28.8644 309.747 44.1418 309.745 60.071Z" fill="black"/>
</g>
<path d="M84.5859 67.3301C84.2871 69.8867 83.3408 71.8623 81.7471 73.2568C80.1644 74.6403 78.056 75.332 75.4219 75.332C72.5664 75.332 70.2754 74.3083 68.5488 72.2607C66.8333 70.2132 65.9756 67.474 65.9756 64.043V61.7188C65.9756 59.472 66.374 57.4964 67.1709 55.792C67.9788 54.0876 69.1188 52.7816 70.5908 51.874C72.0628 50.9554 73.7673 50.4961 75.7041 50.4961C78.2718 50.4961 80.3304 51.2155 81.8799 52.6543C83.4294 54.082 84.3314 56.0632 84.5859 58.5977H81.3818C81.1051 56.6719 80.502 55.2773 79.5723 54.4141C78.6536 53.5508 77.3643 53.1191 75.7041 53.1191C73.6676 53.1191 72.0684 53.8717 70.9062 55.377C69.7552 56.8822 69.1797 59.0238 69.1797 61.8018V64.1426C69.1797 66.7656 69.7275 68.8519 70.8232 70.4014C71.9189 71.9508 73.4518 72.7256 75.4219 72.7256C77.1927 72.7256 78.5485 72.3271 79.4893 71.5303C80.4411 70.7223 81.0719 69.3223 81.3818 67.3301H84.5859ZM87.6572 65.8525C87.6572 64.0928 88.0003 62.5101 88.6865 61.1045C89.3838 59.6989 90.3467 58.6143 91.5752 57.8506C92.8148 57.0869 94.2259 56.7051 95.8086 56.7051C98.2546 56.7051 100.23 57.5518 101.735 59.2451C103.252 60.9385 104.01 63.1908 104.01 66.002V66.2178C104.01 67.9665 103.672 69.5381 102.997 70.9326C102.333 72.3161 101.376 73.3952 100.125 74.1699C98.8854 74.9447 97.4577 75.332 95.8418 75.332C93.4069 75.332 91.4313 74.4854 89.915 72.792C88.4098 71.0986 87.6572 68.8574 87.6572 66.0684V65.8525ZM90.7451 66.2178C90.7451 68.21 91.2044 69.8092 92.123 71.0156C93.0527 72.222 94.2923 72.8252 95.8418 72.8252C97.4023 72.8252 98.6419 72.2165 99.5605 70.999C100.479 69.7705 100.938 68.055 100.938 65.8525C100.938 63.8825 100.468 62.2887 99.5273 61.0713C98.5977 59.8428 97.3581 59.2285 95.8086 59.2285C94.2923 59.2285 93.0693 59.8317 92.1396 61.0381C91.21 62.2445 90.7451 63.971 90.7451 66.2178ZM110.767 57.0371L110.866 59.2949C112.239 57.5684 114.032 56.7051 116.245 56.7051C120.041 56.7051 121.956 58.8467 121.989 63.1299V75H118.918V63.1133C118.907 61.8184 118.608 60.861 118.021 60.2412C117.446 59.6214 116.544 59.3115 115.315 59.3115C114.319 59.3115 113.445 59.5771 112.692 60.1084C111.94 60.6396 111.353 61.3369 110.933 62.2002V75H107.861V57.0371H110.767ZM130.788 52.6875V57.0371H134.142V59.4111H130.788V70.5508C130.788 71.2702 130.938 71.8125 131.236 72.1777C131.535 72.5319 132.044 72.709 132.764 72.709C133.118 72.709 133.605 72.6426 134.225 72.5098V75C133.417 75.2214 132.631 75.332 131.867 75.332C130.495 75.332 129.46 74.917 128.763 74.0869C128.065 73.2568 127.717 72.0781 127.717 70.5508V59.4111H124.446V57.0371H127.717V52.6875H130.788ZM148.834 75C148.657 74.6458 148.513 74.015 148.402 73.1074C146.975 74.5905 145.27 75.332 143.289 75.332C141.518 75.332 140.063 74.834 138.923 73.8379C137.794 72.8307 137.229 71.5579 137.229 70.0195C137.229 68.1491 137.938 66.6992 139.354 65.6699C140.782 64.6296 142.785 64.1094 145.364 64.1094H148.353V62.6982C148.353 61.6247 148.032 60.7725 147.39 60.1416C146.748 59.4997 145.801 59.1787 144.551 59.1787C143.455 59.1787 142.536 59.4554 141.795 60.0088C141.053 60.5622 140.683 61.2318 140.683 62.0176H137.595C137.595 61.1211 137.91 60.2578 138.541 59.4277C139.183 58.5866 140.046 57.9225 141.131 57.4355C142.227 56.9486 143.427 56.7051 144.733 56.7051C146.803 56.7051 148.424 57.2253 149.598 58.2656C150.771 59.2949 151.38 60.7171 151.424 62.5322V70.7998C151.424 72.4489 151.634 73.7604 152.055 74.7344V75H148.834ZM143.737 72.6592C144.7 72.6592 145.613 72.4102 146.477 71.9121C147.34 71.4141 147.965 70.7666 148.353 69.9697V66.2842H145.945C142.182 66.2842 140.301 67.3854 140.301 69.5879C140.301 70.5508 140.622 71.3034 141.264 71.8457C141.906 72.388 142.73 72.6592 143.737 72.6592ZM163.443 72.8252C164.539 72.8252 165.496 72.4932 166.315 71.8291C167.134 71.165 167.588 70.335 167.677 69.3389H170.582C170.527 70.3682 170.173 71.3477 169.52 72.2773C168.867 73.207 167.992 73.9486 166.896 74.502C165.812 75.0553 164.661 75.332 163.443 75.332C160.997 75.332 159.049 74.5186 157.6 72.8916C156.161 71.2536 155.441 69.0179 155.441 66.1846V65.6699C155.441 63.9212 155.762 62.3662 156.404 61.0049C157.046 59.6436 157.965 58.5866 159.16 57.834C160.367 57.0814 161.789 56.7051 163.427 56.7051C165.441 56.7051 167.112 57.3083 168.44 58.5146C169.78 59.721 170.493 61.2871 170.582 63.2129H167.677C167.588 62.0508 167.146 61.099 166.349 60.3574C165.563 59.6048 164.589 59.2285 163.427 59.2285C161.866 59.2285 160.654 59.793 159.791 60.9219C158.939 62.0397 158.513 63.6611 158.513 65.7861V66.3672C158.513 68.4368 158.939 70.0306 159.791 71.1484C160.643 72.2663 161.861 72.8252 163.443 72.8252ZM178.202 52.6875V57.0371H181.556V59.4111H178.202V70.5508C178.202 71.2702 178.352 71.8125 178.65 72.1777C178.949 72.5319 179.458 72.709 180.178 72.709C180.532 72.709 181.019 72.6426 181.639 72.5098V75C180.831 75.2214 180.045 75.332 179.281 75.332C177.909 75.332 176.874 74.917 176.177 74.0869C175.479 73.2568 175.131 72.0781 175.131 70.5508V59.4111H171.86V57.0371H175.131V52.6875H178.202ZM212.65 75H209.446L197.277 56.373V75H194.073V50.8281H197.277L209.479 69.5381V50.8281H212.65V75ZM217.017 65.8525C217.017 64.0928 217.36 62.5101 218.046 61.1045C218.743 59.6989 219.706 58.6143 220.935 57.8506C222.174 57.0869 223.585 56.7051 225.168 56.7051C227.614 56.7051 229.59 57.5518 231.095 59.2451C232.611 60.9385 233.369 63.1908 233.369 66.002V66.2178C233.369 67.9665 233.032 69.5381 232.356 70.9326C231.692 72.3161 230.735 73.3952 229.484 74.1699C228.245 74.9447 226.817 75.332 225.201 75.332C222.766 75.332 220.791 74.4854 219.274 72.792C217.769 71.0986 217.017 68.8574 217.017 66.0684V65.8525ZM220.104 66.2178C220.104 68.21 220.564 69.8092 221.482 71.0156C222.412 72.222 223.652 72.8252 225.201 72.8252C226.762 72.8252 228.001 72.2165 228.92 70.999C229.839 69.7705 230.298 68.055 230.298 65.8525C230.298 63.8825 229.827 62.2887 228.887 61.0713C227.957 59.8428 226.717 59.2285 225.168 59.2285C223.652 59.2285 222.429 59.8317 221.499 61.0381C220.569 62.2445 220.104 63.971 220.104 66.2178ZM253.125 70.7666L256.578 57.0371H259.649L254.42 75H251.93L247.563 61.3867L243.313 75H240.823L235.61 57.0371H238.665L242.201 70.4844L246.385 57.0371H248.858L253.125 70.7666Z" fill="black"/>
<defs>
<filter id="filter0_d" x="0" y="0" width="313.745" height="128.454" filterUnits="userSpaceOnUse" color-interpolation-filters="sRGB">
<feFlood flood-opacity="0" result="BackgroundImageFix"/>
<feColorMatrix in="SourceAlpha" type="matrix" values="0 0 0 0 0 0 0 0 0 0 0 0 0 0 0 0 0 0 127 0" result="hardAlpha"/>
<feOffset dy="4"/>
<feGaussianBlur stdDeviation="2"/>
<feComposite in2="hardAlpha" operator="out"/>
<feColorMatrix type="matrix" values="0 0 0 0 0 0 0 0 0 0 0 0 0 0 0 0 0 0 0.25 0"/>
<feBlend mode="normal" in2="BackgroundImageFix" result="effect1_dropShadow"/>
<feBlend mode="normal" in="SourceGraphic" in2="effect1_dropShadow" result="shape"/>
</filter>
</defs>
</svg>
