<svg width="194" height="122" viewBox="0 0 194 122" fill="none" xmlns="http://www.w3.org/2000/svg">
<path d="M90.088 5.98447C90.0774 7.39141 89.5622 8.73746 88.6535 9.73236C87.7449 10.7272 86.5154 11.2913 85.2304 11.3029H54.7894C30.0815 11.3029 9.92747 33.5238 9.92747 60.415L9.78073 116.131C9.73879 117.51 9.20957 118.818 8.30446 119.779C7.39936 120.74 6.18899 121.279 4.92819 121.283C4.29708 121.308 3.6678 121.194 3.07823 120.946C2.48867 120.698 1.95101 120.322 1.49765 119.841C1.04428 119.359 0.684566 118.782 0.440185 118.145C0.195804 117.507 0.0718072 116.822 0.0756481 116.131L0.222392 60.415C0.222392 27.5628 24.6369 0.832275 54.7894 0.832275H85.2304C87.8667 0.832275 90.088 3.40837 90.088 5.98447Z" fill="black"/>
<path d="M193.317 61.0632C193.317 94.2311 168.903 121.283 138.457 121.283H102.424C101.149 121.244 99.935 120.672 99.0326 119.684C98.1302 118.696 97.6075 117.367 97.5718 115.97C97.5837 114.565 98.0987 113.221 99.0062 112.228C99.9137 111.234 101.141 110.67 102.424 110.657L138.457 110.818C163.463 110.657 183.759 88.2756 183.759 61.0632C183.759 33.8507 163.463 11.458 138.467 11.458H102.424C101.141 11.445 99.9137 10.8811 99.0062 9.88752C98.0987 8.89397 97.5837 7.55016 97.5718 6.14513C97.5803 5.45763 97.7128 4.77875 97.9615 4.14741C98.2102 3.51607 98.5703 2.94469 99.0211 2.46604C99.4719 1.98738 100.005 1.61086 100.589 1.35807C101.173 1.10528 101.796 0.981187 102.424 0.992917H138.467C153.016 0.995856 166.968 7.32615 177.254 18.5913C187.541 29.8565 193.318 45.134 193.317 61.0632Z" fill="black"/>
<rect x="62" y="37" width="72" height="11" rx="5.5" fill="black"/>
<rect x="62" y="56" width="72" height="11" rx="5.5" fill="black"/>
<rect x="62" y="75" width="72" height="11" rx="5.5" fill="black"/>
</svg>
