<svg width="667" height="160" viewBox="0 0 667 160" fill="none" xmlns="http://www.w3.org/2000/svg">
<path d="M163.893 61.7137L127.523 42.2997C126.868 41.9497 126.137 41.7812 125.401 41.8104C124.665 41.8395 123.949 42.0656 123.321 42.467C122.692 42.8684 122.174 43.4309 121.814 44.1018C121.454 44.7721 121.265 45.5281 121.265 46.2967V85.1533C121.265 85.9218 121.454 86.6778 121.814 87.3482C122.174 88.0191 122.692 88.5815 123.321 88.983C123.949 89.3844 124.665 89.6105 125.401 89.6396C126.137 89.6687 126.868 89.5003 127.523 89.1503L163.893 69.7363C164.606 69.3628 165.205 68.7901 165.624 68.0815C166.042 67.3735 166.264 66.5575 166.264 65.725C166.264 64.8925 166.042 64.0765 165.624 63.3685C165.205 62.6599 164.606 62.0871 163.893 61.7137ZM151.695 67.9947L131.024 79.0321C130.651 79.2326 130.234 79.3291 129.814 79.3125C129.395 79.2954 128.987 79.1663 128.629 78.9362C128.272 78.7067 127.977 78.3846 127.773 78.0015C127.57 77.6178 127.465 77.1861 127.468 76.7481V54.6676C127.466 54.2302 127.573 53.7991 127.777 53.4171C127.98 53.0345 128.275 52.713 128.632 52.4841C128.989 52.2545 129.396 52.1249 129.815 52.1072C130.234 52.0895 130.65 52.1849 131.024 52.3836L151.695 63.4267C152.098 63.6397 152.438 63.9652 152.675 64.3677C152.912 64.7697 153.038 65.2328 153.038 65.705C153.038 66.1772 152.912 66.6403 152.675 67.0423C152.438 67.4448 152.098 67.7703 151.695 67.9833V67.9947Z" fill="black"/>
<path d="M49.9364 150.122C49.2855 145.399 48.6783 140.666 48.0493 135.944L44.7673 111.602C44.3406 108.439 43.9156 105.279 43.4927 102.123C43.2247 100.108 42.9457 98.0864 42.6668 96.0365L34.5438 96.2306H34.3141C34.138 96.2192 33.9618 96.2478 33.7977 96.314C33.6331 96.3802 33.4843 96.4824 33.3612 96.6143C33.2381 96.7457 33.1435 96.9038 33.0844 97.0769C33.0254 97.2504 33.0024 97.4349 33.0177 97.6182C32.8733 102.515 32.2038 107.38 31.0212 112.122C30.3374 114.817 29.5278 117.466 27.8704 119.739C26.3498 121.817 24.851 123.913 23.4343 126.065C21.6073 128.846 19.8569 131.73 19.2607 135.081C18.0627 141.842 20.0757 147.838 24.9057 152.937C26.3443 154.455 28.1877 155.603 29.8287 156.934L33.5319 158.487C36.8648 159.232 40.3136 159.204 43.635 158.407C48.2188 157.453 50.6256 155.146 49.9364 150.122ZM42.3331 148.922C38.608 154.096 31.3931 154.404 26.9241 149.493C22.5481 144.708 21.7495 139.267 23.4014 133.711C25.305 129.383 28.0291 126.579 32.7551 126.425C36.617 126.299 39.4997 128.298 41.808 131.279C45.7026 136.321 45.9105 143.995 42.3331 148.922Z" fill="black"/>
<path d="M112.94 126.18C111.138 129.025 108.726 131.392 105.895 133.094C103.903 134.379 101.737 135.424 99.2431 134.562C98.0282 134.156 96.927 133.444 96.0376 132.489C91.2897 127.025 86.6511 121.463 81.9907 115.93C75.3282 108.028 68.6712 100.123 62.0197 92.2165L59.498 89.1788C60.9968 87.7627 62.4628 86.3752 63.9397 84.9876C66.8443 82.2525 66.1878 82.7493 68.9775 84.9876C73.7474 88.7848 78.6649 92.4106 84.3975 94.5119C86.6949 95.357 89.1947 95.614 91.6124 96.065C95.414 96.7788 99.1993 97.4926 102.82 99.0285C106.989 100.798 110.405 104.079 112.442 108.267C114.725 112.517 115.378 117.512 114.269 122.245C114.269 122.337 114.313 122.451 114.335 122.554L112.94 126.18ZM86.9574 106.583C86.702 107.925 86.5357 109.283 86.4597 110.648C86.4979 117.198 91.8585 123.781 98.3131 125.386C105.074 127.042 110.653 123.056 110.823 116.467C110.998 109.426 105.14 102.318 98.1381 101.05C93.0729 100.188 88.8008 102.34 86.9574 106.583Z" fill="black"/>
<path d="M63.4638 81.8586L57.775 87.2374C56.2981 85.2332 54.4492 84.2625 51.8892 84.6679C53.9733 81.5331 52.2229 78.3869 51.9439 75.3035C51.8017 73.7504 51.4298 72.2086 51.1016 70.3129L63.4638 81.8586Z" fill="black"/>
<path d="M126.325 1.20052e-05H93.4173C82.9018 -0.00684 72.5755 2.91953 63.5074 8.47764C54.4392 14.0352 46.959 22.0218 41.8407 31.6106C40.9108 26.2357 39.9771 20.8643 39.0401 15.4969C38.8114 14.1774 38.1654 12.976 37.2054 12.0847C36.2455 11.1933 35.0273 10.664 33.7451 10.5806C33.9491 36.371 34.1537 62.1362 34.3578 87.8769C34.3578 89.8069 34.3578 91.7426 34.4015 93.6726L42.4917 93.467C41.7259 90.7433 42.8144 88.9561 44.6797 87.4544L44.8383 87.3288C46.3699 86.0954 47.8194 84.7421 49.3182 83.4745C49.7427 83.1479 50.0649 82.6979 50.2448 82.1806C50.4248 81.6639 50.4543 81.1026 50.3302 80.5681C50.0129 78.8551 49.723 77.0907 49.4221 75.3549L45.5658 53.1601C49.3948 29.2923 69.3986 10.7919 93.4064 10.7919H126.314C127.703 10.7799 129.032 10.1986 130.014 9.17313C130.997 8.14761 131.554 6.76065 131.565 5.31031C131.576 2.65516 129.175 1.20052e-05 126.325 1.20052e-05ZM41.1077 73.1908C40.5668 73.1908 40.0378 73.0235 39.5882 72.7094C39.1385 72.396 38.7879 71.95 38.5811 71.4281C38.3738 70.9068 38.3197 70.3324 38.4252 69.7791C38.5308 69.2252 38.7912 68.7164 39.1736 68.3167C39.5565 67.9176 40.0438 67.6458 40.5744 67.5356C41.1045 67.4254 41.6547 67.4819 42.1542 67.6984C42.6541 67.9142 43.0813 68.2802 43.3816 68.7495C43.6825 69.2189 43.8427 69.7711 43.8427 70.3358C43.8427 71.0929 43.5545 71.8193 43.0419 72.3549C42.5288 72.8899 41.8331 73.1908 41.1077 73.1908Z" fill="black"/>
<path d="M1.32999 23.8164L11.176 33.0209C17.6962 39.1118 24.2055 45.2021 30.7039 51.2929C31.1169 51.6692 31.3816 52.1922 31.4478 52.7604C31.5572 58.1906 31.5955 63.6094 31.6557 69.051C31.6557 69.1881 31.6557 69.3251 31.6283 69.7534C30.5343 68.3772 29.6263 67.201 28.7073 66.019C19.5905 54.3135 10.4742 42.604 1.35734 30.8911C-0.431351 28.5843 -0.464172 25.7978 1.32999 23.8164Z" fill="black"/>
<path d="M243.17 62.0791C243.17 96.2649 216.777 124.147 183.864 124.147H144.912C143.533 124.106 142.221 123.516 141.246 122.498C140.27 121.48 139.705 120.11 139.667 118.671C139.679 117.223 140.236 115.838 141.217 114.814C142.198 113.789 143.525 113.208 144.912 113.195L183.864 113.361C210.897 113.195 232.837 90.1266 232.837 62.0791C232.837 34.0316 210.897 10.9518 183.875 10.9518H144.912C143.525 10.9386 142.198 10.3574 141.217 9.33299C140.236 8.30918 139.679 6.92393 139.667 5.47588C139.676 4.76727 139.819 4.06778 140.088 3.41684C140.357 2.7659 140.746 2.17722 141.233 1.68387C141.72 1.19053 142.296 0.802247 142.928 0.541871C143.559 0.281495 144.233 0.153575 144.912 0.165566H183.875C199.603 0.168421 214.686 6.69325 225.805 18.304C236.925 29.9147 243.172 45.6612 243.17 62.0791Z" fill="black"/>
<circle cx="140" cy="117" r="11" fill="black"/>
<path d="M424.799 89.8982H411.72C410.704 89.9393 409.691 89.7606 408.744 89.3728C407.797 88.9857 406.937 88.3981 406.218 87.6479C405.498 86.897 404.936 85.9994 404.565 85.011C404.194 84.0226 404.023 82.9651 404.062 81.9042V28.5499C404.101 26.4423 404.921 24.433 406.348 22.9427C407.776 21.4524 409.701 20.597 411.72 20.5559H424.799C434.159 20.5559 442.029 23.8888 448.407 30.5541C454.785 37.2194 457.967 45.4418 457.952 55.2213C457.952 65.0083 454.763 73.2347 448.385 79.8999C442.007 86.5652 434.145 89.8982 424.799 89.8982ZM419.444 73.7731C421.785 73.8376 423.57 73.8685 424.799 73.8645C427.153 73.9033 429.491 73.4471 431.673 72.5238C433.856 71.5999 435.838 70.2278 437.502 68.4885C439.166 66.7492 440.478 64.6788 441.36 62.3994C442.242 60.1199 442.676 57.6789 442.636 55.2213C442.636 49.8922 440.939 45.4532 437.544 41.9056C434.149 38.358 429.908 36.5822 424.821 36.5782H419.444V73.7731Z" fill="black"/>
<path d="M505.361 142.207C498.574 142.207 492.857 139.781 488.207 134.927C483.558 130.074 481.231 124.103 481.227 117.015C481.227 109.931 483.539 103.945 488.163 99.057C492.787 94.1692 498.491 91.7271 505.273 91.7311H512.931C513.752 91.7311 514.162 91.2685 514.162 90.3549V64.5458C514.162 62.1162 513.238 59.7859 511.592 58.0672C509.946 56.349 507.713 55.384 505.386 55.384C503.058 55.384 500.825 56.349 499.179 58.0672C497.533 59.7859 496.609 62.1162 496.609 64.5458C496.588 65.7654 496.802 66.9765 497.239 68.1076C497.676 69.2388 498.327 70.2666 499.153 71.1294C499.954 72.0076 500.922 72.7025 501.995 73.1695C503.067 73.6361 504.221 73.865 505.383 73.8416C506.402 73.8079 507.417 73.9889 508.367 74.3744C509.317 74.7603 510.183 75.3422 510.913 76.0856C511.635 76.8291 512.202 77.7199 512.578 78.702C512.954 79.6847 513.133 80.7381 513.101 81.7956C513.132 82.8634 512.953 83.9261 512.576 84.919C512.199 85.912 511.631 86.8136 510.908 87.569C510.184 88.3239 509.321 88.9166 508.369 89.3106C507.418 89.704 506.4 89.8907 505.377 89.8582C498.536 89.8582 492.803 87.4257 488.18 82.5608C483.556 77.6959 481.244 71.685 481.244 64.5286C481.244 57.3683 483.556 51.3711 488.18 46.5364C492.803 41.7017 498.536 39.2847 505.377 39.2847C512.226 39.2847 517.96 41.7017 522.581 46.5364C527.201 51.3711 529.511 57.3643 529.511 64.5172V90.2921C529.547 92.5858 529.143 94.8641 528.324 96.9928C527.504 99.1215 526.285 101.058 524.738 102.687C523.192 104.318 521.348 105.608 519.317 106.484C517.286 107.36 515.107 107.803 512.91 107.788H505.361C504.2 107.763 503.047 107.991 501.974 108.456C500.902 108.92 499.934 109.612 499.131 110.488C498.305 111.344 497.654 112.366 497.217 113.491C496.78 114.617 496.566 115.823 496.587 117.038C496.601 118.846 497.124 120.609 498.09 122.109C499.055 123.61 500.422 124.782 502.019 125.479C503.617 126.177 505.376 126.369 507.077 126.033C508.779 125.696 510.349 124.846 511.591 123.587C512.416 122.768 513.068 121.78 513.507 120.684C513.946 119.587 514.162 118.408 514.14 117.22C514.188 114.536 514.915 111.912 516.246 109.615C517.827 106.76 520.332 106.668 522.499 106.668C524.665 106.668 525.78 107.239 527.476 109.615C529.09 111.899 529.495 114.531 529.495 117.038C529.495 124.126 527.17 130.097 522.52 134.95C517.871 139.804 512.151 142.223 505.361 142.207Z" fill="black"/>
<path d="M541.036 36.4126C539.85 36.4354 538.671 36.2036 537.574 35.7308C536.476 35.2586 535.484 34.5557 534.658 33.6661C532.979 31.8811 532.038 29.4789 532.038 26.9768C532.038 24.4747 532.979 22.0725 534.658 20.2876C535.711 19.1924 537.007 18.385 538.43 17.9373C539.853 17.4891 541.36 17.4143 542.817 17.7192C544.275 18.0247 545.638 18.6996 546.785 19.6857C547.933 20.6718 548.83 21.9378 549.398 23.3715C549.965 24.8059 550.185 26.3641 550.038 27.9081C549.891 29.4521 549.381 30.9344 548.554 32.2237C547.727 33.5131 546.609 34.57 545.297 35.3008C543.986 36.0312 542.522 36.4132 541.036 36.4126ZM546.61 87.4771C545.882 88.2166 545.018 88.7956 544.071 89.1798C543.124 89.5647 542.112 89.7463 541.096 89.7154C540.08 89.7583 539.066 89.5807 538.118 89.1941C537.171 88.807 536.31 88.22 535.59 87.4691C534.871 86.7177 534.309 85.8195 533.938 84.8305C533.567 83.841 533.397 82.7823 533.438 81.7214V47.313C533.397 46.2521 533.567 45.1934 533.938 44.2039C534.309 43.2149 534.871 42.3167 535.59 41.5653C536.31 40.8144 537.171 40.2274 538.118 39.8403C539.066 39.4537 540.08 39.2762 541.096 39.319C542.119 39.283 543.138 39.4617 544.092 39.8455C545.047 40.2292 545.918 40.8093 546.654 41.5516C547.375 42.3087 547.938 43.2138 548.308 44.209C548.678 45.2043 548.847 46.2692 548.804 47.3358V81.75C548.835 82.8092 548.655 83.8633 548.278 84.8465C547.901 85.8304 547.333 86.7217 546.61 87.4657V87.4771Z" fill="black"/>
<path d="M469.998 34.8774C468.812 34.9003 467.633 34.6685 466.536 34.1957C465.438 33.7235 464.446 33.0205 463.62 32.1309C461.941 30.346 461 27.9438 461 25.4416C461 22.9395 461.941 20.5373 463.62 18.7524C464.673 17.6572 465.968 16.8498 467.392 16.4022C468.815 15.9539 470.321 15.8791 471.779 16.1841C473.236 16.4895 474.6 17.1644 475.747 18.1506C476.895 19.1367 477.792 20.4026 478.36 21.8364C478.927 23.2707 479.147 24.829 479 26.373C478.853 27.917 478.343 29.3993 477.516 30.6886C476.689 31.9779 475.571 33.0348 474.259 33.7657C472.948 34.496 471.484 34.878 469.998 34.8774ZM475.572 85.942C474.844 86.6814 473.98 87.2604 473.032 87.6447C472.086 88.0295 471.074 88.2111 470.058 88.1803C469.041 88.2231 468.028 88.0455 467.08 87.659C466.133 87.2718 465.272 86.6848 464.552 85.934C463.833 85.1825 463.271 84.2843 462.9 83.2954C462.529 82.3058 462.359 81.2472 462.4 80.1863V45.7778C462.359 44.7169 462.529 43.6583 462.9 42.6687C463.271 41.6798 463.833 40.7816 464.552 40.0301C465.272 39.2793 466.133 38.6923 467.08 38.3051C468.028 37.9186 469.041 37.741 470.058 37.7838C471.081 37.7479 472.1 37.9266 473.054 38.3103C474.009 38.694 474.88 39.2741 475.616 40.0164C476.337 40.7736 476.9 41.6786 477.27 42.6739C477.64 43.6691 477.809 44.734 477.766 45.8007V80.2149C477.797 81.2741 477.617 82.3281 477.24 83.3114C476.863 84.2952 476.295 85.1865 475.572 85.9305V85.942Z" fill="black"/>
<path d="M573.462 89.7154C567.555 89.7154 562.632 87.6541 558.693 83.5315C554.755 79.4089 552.78 74.2699 552.769 68.1145V28.5841C552.738 27.5204 552.912 26.4612 553.281 25.4694C553.651 24.4775 554.208 23.5736 554.919 22.8113C555.631 22.0576 556.484 21.4661 557.425 21.0727C558.367 20.6798 559.375 20.4942 560.389 20.5273C561.411 20.4959 562.429 20.6827 563.379 21.0767C564.329 21.4706 565.193 22.0633 565.916 22.8188C566.639 23.5742 567.206 24.4752 567.583 25.4676C567.96 26.4606 568.138 27.5227 568.107 28.5899V39.6101H586.453C587.468 39.5662 588.481 39.7415 589.427 40.1258C590.373 40.51 591.233 41.0947 591.952 41.8433C592.672 42.5913 593.235 43.4872 593.607 44.4734C593.978 45.46 594.15 46.5164 594.111 47.5756C594.145 48.6451 593.972 49.7106 593.604 50.7093C593.236 51.7074 592.679 52.6187 591.967 53.3884C591.244 54.1404 590.379 54.7279 589.427 55.1145C588.475 55.5005 587.457 55.6769 586.437 55.6324H568.107V68.0916C568.093 68.8299 568.222 69.5631 568.486 70.2483C568.75 70.9329 569.144 71.5553 569.644 72.0772C570.144 72.5991 570.74 73.0108 571.396 73.286C572.053 73.5618 572.755 73.6966 573.462 73.6817C574.163 73.7029 574.861 73.5709 575.511 73.2946C576.161 73.0182 576.749 72.6037 577.236 72.0772C577.73 71.5502 578.117 70.9243 578.373 70.2374C578.63 69.5505 578.751 68.8168 578.73 68.0802V67.2465C578.705 66.1896 578.892 65.1384 579.277 64.1609C579.662 63.1827 580.237 62.2988 580.967 61.5651C581.685 60.8211 582.54 60.2352 583.48 59.843C584.419 59.4507 585.425 59.2594 586.437 59.2811C587.449 59.2577 588.454 59.4484 589.394 59.8418C590.333 60.2352 591.186 60.8234 591.902 61.5702C592.618 62.3177 593.181 63.2079 593.558 64.1883C593.935 65.1687 594.117 66.2187 594.095 67.2751V68.0973C594.095 74.1882 592.12 79.3272 588.171 83.5143C584.222 87.7015 579.319 89.7685 573.462 89.7154Z" fill="black"/>
<path d="M644.201 87.4657C643.471 88.2091 642.605 88.7915 641.655 89.1781C640.705 89.5647 639.689 89.7474 638.67 89.7154C637.654 89.7582 636.64 89.5807 635.692 89.1941C634.745 88.807 633.884 88.22 633.164 87.4691C632.445 86.7177 631.883 85.8195 631.512 84.8305C631.141 83.841 630.971 82.7823 631.012 81.7214V64.5458C631.035 63.3312 630.817 62.1253 630.371 61.0032C629.926 59.8812 629.263 58.8671 628.425 58.0249C627.606 57.161 626.628 56.4792 625.55 56.0207C624.471 55.5628 623.315 55.3372 622.151 55.3584C620.995 55.3332 619.846 55.5553 618.775 56.0099C617.703 56.4644 616.732 57.1422 615.921 58.0021C615.093 58.8409 614.439 59.8487 614.001 60.9627C613.563 62.0767 613.348 63.273 613.372 64.4772C613.351 65.6872 613.566 66.8885 614.004 68.0083C614.442 69.1286 615.094 70.1438 615.921 70.9923C616.725 71.8648 617.694 72.554 618.767 73.0171C619.839 73.4796 620.991 73.7063 622.151 73.6817C623.169 73.6486 624.183 73.8302 625.133 74.2156C626.082 74.6016 626.947 75.1829 627.676 75.9258C628.398 76.6686 628.966 77.5588 629.342 78.5415C629.719 79.5242 629.896 80.5777 629.864 81.6358C629.893 82.703 629.713 83.765 629.336 84.7574C628.958 85.7492 628.39 86.6503 627.667 87.4052C626.944 88.16 626.081 88.7527 625.131 89.1473C624.18 89.5418 623.162 89.7291 622.14 89.6983C615.292 89.6983 609.557 87.2755 604.937 82.4295C600.316 77.5834 598.005 71.5936 598.001 64.4601C598.001 57.3266 600.313 51.3516 604.937 46.5364C609.561 41.7212 615.295 39.3116 622.14 39.3076C628.981 39.3076 634.728 41.7246 639.381 46.5593C644.035 51.3939 646.361 57.3911 646.361 64.5515V81.71C646.402 82.7732 646.23 83.8335 645.858 84.8242C645.487 85.8149 644.922 86.7142 644.201 87.4657Z" fill="black"/>
<path d="M284.006 50.6305C283.273 51.3328 282.644 51.6811 282.119 51.6811C281.669 51.6588 281.245 51.4538 280.938 51.1101C280.464 50.6362 280.037 50.1137 279.663 49.5513C279.225 48.9209 278.666 48.3921 278.022 47.9981C277.406 47.587 276.691 47.3632 275.96 47.3529C274.264 47.3529 271.983 49.69 269.117 54.3648C266.251 59.0396 263.441 64.9169 260.688 71.9973C260.748 73.4019 260.852 75.1777 260.994 77.3133C261.136 79.4488 261.246 81.0362 261.306 82.0754L261.568 85.7412C261.579 86.5263 261.391 87.3006 261.021 87.9852C260.816 88.3159 260.527 88.5808 260.186 88.7498C259.845 88.9194 259.466 88.9868 259.091 88.9445C258.095 88.9445 257.451 87.5553 257.16 84.7762C256.868 81.9972 256.685 77.9528 256.613 72.6425C256.552 71.2949 256.509 69.3764 256.481 66.8697C256.454 64.363 256.377 61.3709 256.263 57.8878C256.088 52.6421 256 48.8872 256 46.622C256 45.2174 256.819 44.515 258.456 44.515C259.452 44.515 260.048 44.9604 260.256 45.8455C260.515 47.5248 260.618 49.2269 260.562 50.9274V65.5335C262.1 61.2967 264.01 57.2181 266.267 53.3484C267.908 50.4534 269.934 47.816 272.284 45.5143C274.242 43.7139 275.984 42.8135 277.508 42.8135C278.789 42.8135 280.052 43.1281 281.195 43.7328C282.288 44.2781 283.248 45.0769 284.001 46.0681C284.631 46.8213 285.002 47.7715 285.057 48.769C285.1 49.3 284.723 49.9281 284.006 50.6305Z" fill="black"/>
<path d="M325.108 65.3337C325.108 66.4375 324.331 68.8511 322.778 72.574C321.112 76.4716 318.727 79.989 315.76 82.9262C314.242 84.4822 312.442 85.7053 310.464 86.5235C308.486 87.3412 306.372 87.7374 304.245 87.6883C300.776 87.7968 297.404 86.4807 294.853 84.0225C292.337 81.5786 291.079 77.8232 291.079 72.7567C291.171 67.8947 292.233 63.1057 294.198 58.6964C296.163 54.2871 298.987 50.3535 302.49 47.1474C305.848 44.1782 309.351 42.6936 312.997 42.6936C314.923 42.6285 316.825 43.1544 318.467 44.2067C319.179 44.6578 319.761 45.299 320.154 46.0636C320.548 46.8287 320.737 47.6898 320.705 48.5577C320.705 50.7007 319.55 52.7774 317.242 54.7873C314.529 57.0416 311.492 58.8357 308.244 60.1033C304.565 61.6279 300.74 62.7322 296.834 63.398C296.149 66.0886 295.796 68.8596 295.783 71.6433C295.783 75.1875 296.587 77.9357 298.196 79.8885C299.804 81.847 302.101 82.8177 305.088 82.8177C309.588 82.8177 313.244 81.139 316.055 77.7815C318.9 74.3618 321.264 70.5384 323.079 66.4243C323.193 66.1788 323.396 65.7049 323.691 65.0025C323.987 64.3002 324.238 63.9462 324.479 63.9462C324.9 63.9576 325.108 64.4201 325.108 65.3337ZM315.322 47.2616C314.28 46.6946 313.117 46.4119 311.942 46.4393C309.628 46.4696 307.384 47.2696 305.536 48.7233C303.518 50.2153 301.778 52.0785 300.4 54.222C299.217 55.9487 298.314 57.8662 297.725 59.8978C300.655 59.5363 303.521 58.7427 306.236 57.5396C308.889 56.4495 311.408 55.0351 313.741 53.3256C315.758 51.8027 316.766 50.5505 316.766 49.5684C316.764 49.0796 316.627 48.6017 316.371 48.1923C316.114 47.7829 315.75 47.4597 315.322 47.2616Z" fill="black"/>
<path d="M383.861 68.8625C382.315 74.508 380.515 79.0874 378.463 82.6008C376.41 86.1141 374.769 87.8711 373.54 87.8711C371.785 87.8711 370.117 86.0993 368.535 82.5551C366.781 78.445 365.471 74.1431 364.629 69.7304C363.676 65.2366 363.045 60.6749 362.742 56.0835C361.166 59.2583 359.471 62.8459 357.655 66.8469C355.839 70.8479 354.405 74.2527 353.355 77.0621C351.776 81.3942 350.372 85.6082 349.143 89.704C349.033 89.9855 348.943 90.2756 348.875 90.5719C348.811 90.9362 348.643 91.2725 348.394 91.5369C348.129 91.739 347.803 91.8367 347.475 91.811C346.773 91.8755 346.071 91.6728 345.5 91.24C344.977 90.7147 344.572 90.0751 344.313 89.3671L343.63 85.5814C342.576 79.5973 341.463 73.9176 340.293 68.5427C339.266 63.876 337.947 59.2845 336.344 54.7988C334.998 51.194 333.975 49.3914 333.275 49.3914C332.877 49.4696 332.51 49.6683 332.219 49.9624C331.806 50.3187 331.365 50.6396 330.901 50.9217C330.752 51.0353 330.579 51.1112 330.397 51.1426C330.214 51.1746 330.027 51.1615 329.851 51.1044C329.15 50.7389 328.795 50.3107 328.795 49.8253C328.795 49.34 329.15 48.5691 329.851 47.5413C330.544 46.5124 331.354 45.5754 332.263 44.7491C333.171 43.9269 333.975 43.5101 334.675 43.5101C335.16 43.4987 335.636 43.6443 336.037 43.9269C336.488 44.2752 336.889 44.6904 337.224 45.1603C337.979 46.1995 339.031 48.628 340.38 52.4463C341.919 56.9777 343.151 61.6159 344.067 66.3273L347.666 82.3552C350.358 74.5365 352.83 68.0477 355.084 62.8898C357.337 57.732 359.89 52.372 362.742 46.8105C363.858 44.7395 365.028 43.7025 366.254 43.6985C366.634 43.6865 367.012 43.7625 367.361 43.9201C367.709 44.0782 368.02 44.3146 368.272 44.6121C368.687 44.9941 368.966 45.5114 369.065 46.0796C369.026 46.4033 368.867 46.6986 368.622 46.9018C368.354 47.1776 368.119 47.4865 367.922 47.8211C367.441 48.5155 367.071 49.2869 366.828 50.1051C366.512 51.391 366.377 52.7186 366.429 54.045C366.553 57.4111 366.919 60.7629 367.523 64.0718C368.156 68.2355 369.154 72.3296 370.504 76.3026C371.762 79.9113 373.122 81.714 374.584 81.71C375.467 81.71 376.55 80.1872 377.834 77.142C379.299 73.4893 380.432 69.7002 381.214 65.8248C382.153 61.5731 382.639 57.2261 382.664 52.8631C382.664 52.0066 382.253 51.0302 381.433 49.9338C380.787 49.0145 380.465 48.3465 380.465 47.9182C380.58 47.3067 380.872 46.7471 381.301 46.3137C381.493 46.0151 381.746 45.765 382.042 45.5823C382.339 45.3995 382.671 45.2882 383.014 45.2573C383.774 45.2573 384.491 45.9026 385.163 47.1816C385.805 48.355 386.151 49.6792 386.17 51.0301C386.202 57.0576 385.425 63.06 383.861 68.8625Z" fill="black"/>
</svg>
